<svg width="21" height="21" viewBox="0 0 21 21" fill="none" xmlns="http://www.w3.org/2000/svg">
<path d="M2.02408 0.367321C1.67397 0.015224 1.10481 0.0133017 0.752337 0.363026C0.398311 0.714286 0.39753 1.28649 0.750596 1.63871L8.50035 9.37L8.97035 10H9.00035V15.87C8.96035 16.16 9.06035 16.47 9.29035 16.7L11.3004 18.71C11.6904 19.1 12.3204 19.1 12.7104 18.71C12.9404 18.5 13.0404 18.18 13.0004 17.88V13.89L19.2054 20.095C19.5561 20.4457 20.1247 20.4457 20.4754 20.095C20.8261 19.7443 20.8261 19.1757 20.4754 18.825L13.0004 11.35L8.41035 6.76L3.15035 1.5L2.02408 0.367321ZM5.21035 0.999996L13.5404 9.34L18.7904 2.62C18.9527 2.41153 19.026 2.14725 18.9942 1.88493C18.9623 1.6226 18.8279 1.38354 18.6204 1.22C18.4304 1.08 18.2204 0.999996 18.0004 0.999996H5.21035Z" fill="white"/>
</svg>
