<svg width="30" height="34" viewBox="0 0 30 34" fill="none" xmlns="http://www.w3.org/2000/svg">
<path d="M23.3333 0.333328C22.4167 0.333328 21.6667 1.08333 21.6667 1.99999V3.66666H8.33333V1.99999C8.33333 1.08333 7.58333 0.333328 6.66667 0.333328C5.75 0.333328 5 1.08333 5 1.99999V3.66666H3.33333C1.48333 3.66666 0.0166667 5.16666 0.0166667 7L0 30.3333C0 31.2174 0.351189 32.0652 0.976311 32.6904C1.60143 33.3155 2.44928 33.6667 3.33333 33.6667H26.6667C28.5 33.6667 30 32.1667 30 30.3333V7C30 5.16666 28.5 3.66666 26.6667 3.66666H25V1.99999C25 1.08333 24.25 0.333328 23.3333 0.333328ZM26.6667 30.3333H3.33333V13.6667H26.6667V30.3333ZM13.3333 18.6667C13.3333 17.75 14.0833 17 15 17C15.9167 17 16.6667 17.75 16.6667 18.6667C16.6667 19.5833 15.9167 20.3333 15 20.3333C14.0833 20.3333 13.3333 19.5833 13.3333 18.6667ZM6.66667 18.6667C6.66667 17.75 7.41667 17 8.33333 17C9.25 17 10 17.75 10 18.6667C10 19.5833 9.25 20.3333 8.33333 20.3333C7.41667 20.3333 6.66667 19.5833 6.66667 18.6667ZM20 18.6667C20 17.75 20.75 17 21.6667 17C22.5833 17 23.3333 17.75 23.3333 18.6667C23.3333 19.5833 22.5833 20.3333 21.6667 20.3333C20.75 20.3333 20 19.5833 20 18.6667ZM13.3333 25.3333C13.3333 24.4167 14.0833 23.6667 15 23.6667C15.9167 23.6667 16.6667 24.4167 16.6667 25.3333C16.6667 26.25 15.9167 27 15 27C14.0833 27 13.3333 26.25 13.3333 25.3333ZM6.66667 25.3333C6.66667 24.4167 7.41667 23.6667 8.33333 23.6667C9.25 23.6667 10 24.4167 10 25.3333C10 26.25 9.25 27 8.33333 27C7.41667 27 6.66667 26.25 6.66667 25.3333ZM20 25.3333C20 24.4167 20.75 23.6667 21.6667 23.6667C22.5833 23.6667 23.3333 24.4167 23.3333 25.3333C23.3333 26.25 22.5833 27 21.6667 27C20.75 27 20 26.25 20 25.3333Z" fill="black"/>
</svg>
