<svg width="24" height="24" viewBox="0 0 24 24" fill="none" xmlns="http://www.w3.org/2000/svg">
<g id="mdi:delete">
<path id="Vector" d="M19 6C19 4.89543 18.1045 4 16.9999 4C16.7581 4 16.5299 4 16.3278 4C15.7974 4 15.2893 3.78929 14.9142 3.41421L14.5 3H9.5L9.08579 3.41421C8.71071 3.78929 8.20201 4 7.67157 4H7C5.89543 4 5 4.89543 5 6H19ZM6 19C6 19.5304 6.21071 20.0391 6.58579 20.4142C6.96086 20.7893 7.46957 21 8 21H16C16.5304 21 17.0391 20.7893 17.4142 20.4142C17.7893 20.0391 18 19.5304 18 19V7H6V19Z" fill="black" fill-opacity="0.88"/>
</g>
</svg>
