<svg width="16" height="17" viewBox="0 0 16 17" fill="none" xmlns="http://www.w3.org/2000/svg">
<g id="Drag">
<path id="Vector" d="M4.66699 13.1667V11.8334H6.00033V13.1667H4.66699ZM7.33366 13.1667V11.8334H8.66699V13.1667H7.33366ZM10.0003 13.1667V11.8334H11.3337V13.1667H10.0003ZM4.66699 10.5V9.16671H6.00033V10.5H4.66699ZM7.33366 10.5V9.16671H8.66699V10.5H7.33366ZM10.0003 10.5V9.16671H11.3337V10.5H10.0003ZM4.66699 7.83337V6.50004H6.00033V7.83337H4.66699ZM7.33366 7.83337V6.50004H8.66699V7.83337H7.33366ZM10.0003 7.83337V6.50004H11.3337V7.83337H10.0003ZM4.66699 5.16671V3.83337H6.00033V5.16671H4.66699ZM7.33366 5.16671V3.83337H8.66699V5.16671H7.33366ZM10.0003 5.16671V3.83337H11.3337V5.16671H10.0003Z" fill="black" fill-opacity="0.4"/>
</g>
</svg>
