<svg width="28" height="30" viewBox="0 0 28 30" fill="none" xmlns="http://www.w3.org/2000/svg">
<path d="M17.3336 15V28.1333C17.4002 28.6333 17.2336 29.1667 16.8502 29.5167C16.696 29.6712 16.5129 29.7938 16.3113 29.8774C16.1096 29.961 15.8935 30.0041 15.6752 30.0041C15.4569 30.0041 15.2408 29.961 15.0392 29.8774C14.8376 29.7938 14.6544 29.6712 14.5002 29.5167L11.1502 26.1667C10.9684 25.989 10.8302 25.7716 10.7464 25.5317C10.6625 25.2917 10.6353 25.0356 10.6669 24.7833V15H10.6169L1.01689 2.7C0.746232 2.35255 0.624108 1.9121 0.677198 1.47488C0.730289 1.03767 0.954277 0.639244 1.30022 0.366667C1.61689 0.133333 1.96689 0 2.33355 0H25.6669C26.0336 0 26.3836 0.133333 26.7002 0.366667C27.0462 0.639244 27.2701 1.03767 27.3232 1.47488C27.3763 1.9121 27.2542 2.35255 26.9836 2.7L17.3836 15H17.3336Z" fill="black" fill-opacity="0.88"/>
</svg>
