<svg width="24" height="24" viewBox="0 0 24 24" fill="none" xmlns="http://www.w3.org/2000/svg">
<g id="Test Checkbox">
<g id="Vector">
<path d="M20.0002 1.25H4.00001C3.44772 1.25 3 1.69772 3 2.25C3 2.80228 3.44772 3.25 4.00001 3.25H20.0002C20.5525 3.25 21.0002 2.80228 21.0002 2.25C21.0002 1.69772 20.5525 1.25 20.0002 1.25Z" fill="black" fill-opacity="0.88"/>
<path d="M19.0002 4.75H5.00018C4.46974 4.75 3.96104 4.96071 3.58596 5.33579C3.21088 5.71086 3.00018 6.21957 3.00018 6.75V20.75C3.00018 21.2804 3.21088 21.7891 3.58596 22.1642C3.96104 22.5393 4.46974 22.75 5.00018 22.75H19.0002C19.5306 22.75 20.0393 22.5393 20.4144 22.1642C20.7895 21.7891 21.0002 21.2804 21.0002 20.75V6.75C21.0002 6.21957 20.7895 5.71086 20.4144 5.33579C20.0393 4.96071 19.5306 4.75 19.0002 4.75ZM19.0002 6.75V20.75H5.00018V6.75H19.0002ZM10.0002 18.75L6.00018 14.75L7.41018 13.33L10.0002 15.92L16.5902 9.33L18.0002 10.75" fill="black" fill-opacity="0.88"/>
</g>
</g>
</svg>
