<svg width="24" height="24" viewBox="0 0 24 24" fill="none" xmlns="http://www.w3.org/2000/svg">
<g id="Test Radiobox">
<g id="Vector">
<path d="M20.0002 1.25H4.00001C3.44772 1.25 3 1.69772 3 2.25C3 2.80228 3.44772 3.25 4.00001 3.25H20.0002C20.5525 3.25 21.0002 2.80228 21.0002 2.25C21.0002 1.69772 20.5525 1.25 20.0002 1.25Z" fill="black" fill-opacity="0.88"/>
<path d="M12 20.95C10.0904 20.95 8.25909 20.1914 6.90883 18.8412C5.55857 17.4909 4.8 15.6596 4.8 13.75C4.8 11.8404 5.55857 10.0091 6.90883 8.65883C8.25909 7.30857 10.0904 6.55 12 6.55C13.9096 6.55 15.7409 7.30857 17.0912 8.65883C18.4414 10.0091 19.2 11.8404 19.2 13.75C19.2 15.6596 18.4414 17.4909 17.0912 18.8412C15.7409 20.1914 13.9096 20.95 12 20.95ZM12 4.75C10.8181 4.75 9.64778 4.98279 8.55585 5.43508C7.46392 5.88738 6.47177 6.55031 5.63604 7.38604C3.94821 9.07387 3 11.3631 3 13.75C3 16.1369 3.94821 18.4261 5.63604 20.114C6.47177 20.9497 7.46392 21.6126 8.55585 22.0649C9.64778 22.5172 10.8181 22.75 12 22.75C14.3869 22.75 16.6761 21.8018 18.364 20.114C20.0518 18.4261 21 16.1369 21 13.75C21 12.5681 20.7672 11.3978 20.3149 10.3058C19.8626 9.21392 19.1997 8.22177 18.364 7.38604C17.5282 6.55031 16.5361 5.88738 15.4442 5.43508C14.3522 4.98279 13.1819 4.75 12 4.75ZM12 9.25C10.8065 9.25 9.66193 9.7241 8.81802 10.568C7.97411 11.4119 7.5 12.5565 7.5 13.75C7.5 14.9435 7.97411 16.0881 8.81802 16.932C9.66193 17.7759 10.8065 18.25 12 18.25C13.1935 18.25 14.3381 17.7759 15.182 16.932C16.0259 16.0881 16.5 14.9435 16.5 13.75C16.5 12.5565 16.0259 11.4119 15.182 10.568C14.3381 9.7241 13.1935 9.25 12 9.25Z" fill="black" fill-opacity="0.88"/>
</g>
</g>
</svg>
