<svg width="40" height="41" viewBox="0 0 40 41" fill="none" xmlns="http://www.w3.org/2000/svg">
<g id="Account">
<path id="Vector" d="M20 32.5C15.8333 32.5 12.15 30.3666 10 27.1666C10.05 23.8333 16.6667 22 20 22C23.3333 22 29.95 23.8333 30 27.1666C28.8982 28.8073 27.4098 30.1519 25.6659 31.0819C23.9221 32.012 21.9764 32.499 20 32.5ZM20 8.83331C21.3261 8.83331 22.5979 9.3601 23.5355 10.2978C24.4732 11.2355 25 12.5072 25 13.8333C25 15.1594 24.4732 16.4312 23.5355 17.3688C22.5979 18.3065 21.3261 18.8333 20 18.8333C18.6739 18.8333 17.4022 18.3065 16.4645 17.3688C15.5268 16.4312 15 15.1594 15 13.8333C15 12.5072 15.5268 11.2355 16.4645 10.2978C17.4022 9.3601 18.6739 8.83331 20 8.83331ZM20 3.83331C17.8113 3.83331 15.644 4.26441 13.622 5.10199C11.5999 5.93957 9.76254 7.16722 8.2149 8.71487C5.08929 11.8405 3.33334 16.0797 3.33334 20.5C3.33334 24.9203 5.08929 29.1595 8.2149 32.2851C9.76254 33.8327 11.5999 35.0604 13.622 35.898C15.644 36.7356 17.8113 37.1666 20 37.1666C24.4203 37.1666 28.6595 35.4107 31.7851 32.2851C34.9107 29.1595 36.6667 24.9203 36.6667 20.5C36.6667 11.2833 29.1667 3.83331 20 3.83331Z" fill="black" fill-opacity="0.88"/>
</g>
</svg>
