<svg width="28" height="28" viewBox="0 0 28 28" fill="none" xmlns="http://www.w3.org/2000/svg">
<g id="mdi:logout">
<path id="Vector" d="M20.65 10.15C20.199 9.69897 19.4677 9.69897 19.0167 10.15C18.5656 10.601 18.5656 11.3323 19.0167 11.7833L20.0667 12.8333H11.6667C11.0223 12.8333 10.5 13.3557 10.5 14C10.5 14.6443 11.0223 15.1667 11.6667 15.1667H20.0667L19.0167 16.2167C18.5656 16.6677 18.5656 17.399 19.0167 17.85C19.4677 18.301 20.199 18.301 20.65 17.85L24.5 14L20.65 10.15ZM5.83333 5.83333H12.8333C13.4777 5.83333 14 5.311 14 4.66667C14 4.02233 13.4777 3.5 12.8333 3.5H5.83333C4.55 3.5 3.5 4.55 3.5 5.83333V22.1667C3.5 23.45 4.55 24.5 5.83333 24.5H12.8333C13.4777 24.5 14 23.9777 14 23.3333C14 22.689 13.4777 22.1667 12.8333 22.1667H5.83333V5.83333Z" fill="black" fill-opacity="0.88"/>
</g>
</svg>
