<svg width="24" height="24" viewBox="0 0 24 24" fill="none" xmlns="http://www.w3.org/2000/svg">
<g id="mdi:magnify">
<path id="Vector" d="M9.5 3C11.2239 3 12.8772 3.68482 14.0962 4.90381C15.3152 6.12279 16 7.77609 16 9.5C16 11.11 15.41 12.59 14.44 13.73C14.6129 13.9029 14.8474 14 15.0918 14H15.105C15.3579 14 15.6005 14.1005 15.7793 14.2793L19.75 18.25C20.1642 18.6642 20.1642 19.3358 19.75 19.75C19.3358 20.1642 18.6642 20.1642 18.25 19.75L14.2793 15.7793C14.1005 15.6005 14 15.3579 14 15.105V15.0918C14 14.8474 13.9029 14.6129 13.73 14.44C12.5505 15.4468 11.0507 15.9999 9.5 16C7.77609 16 6.12279 15.3152 4.90381 14.0962C3.68482 12.8772 3 11.2239 3 9.5C3 7.77609 3.68482 6.12279 4.90381 4.90381C6.12279 3.68482 7.77609 3 9.5 3ZM9.5 5C7 5 5 7 5 9.5C5 12 7 14 9.5 14C12 14 14 12 14 9.5C14 7 12 5 9.5 5Z" fill="black" fill-opacity="0.4"/>
</g>
</svg>
