<svg width="54" height="54" viewBox="0 0 54 54" fill="none" xmlns="http://www.w3.org/2000/svg">
<path d="M24.3334 37.6668C24.3334 36.1941 25.5273 35.0002 27 35.0002C28.4728 35.0002 29.6667 36.1941 29.6667 37.6668C29.6667 39.1396 28.4728 40.3335 27 40.3335C25.5273 40.3335 24.3334 39.1396 24.3334 37.6668ZM24.3334 16.3335C24.3334 14.8607 25.5273 13.6668 27 13.6668C28.4728 13.6668 29.6667 14.8607 29.6667 16.3335V27.0002C29.6667 28.4729 28.4728 29.6668 27 29.6668C25.5273 29.6668 24.3334 28.4729 24.3334 27.0002V16.3335ZM27 0.333496C12.2534 0.333496 0.333374 12.3335 0.333374 27.0002C0.333374 34.0726 3.14289 40.8554 8.14386 45.8563C10.6201 48.3326 13.5598 50.2968 16.7951 51.637C20.0305 52.9771 23.4981 53.6668 27 53.6668C34.0725 53.6668 40.8553 50.8573 45.8562 45.8563C50.8572 40.8554 53.6667 34.0726 53.6667 27.0002C53.6667 23.4982 52.977 20.0306 51.6368 16.7953C50.2967 13.5599 48.3325 10.6202 45.8562 8.14398C43.38 5.66775 40.4403 3.7035 37.2049 2.36338C33.9696 1.02325 30.502 0.333496 27 0.333496ZM27 48.3335C21.3421 48.3335 15.9159 46.0859 11.9151 42.0851C7.91432 38.0843 5.66671 32.6581 5.66671 27.0002C5.66671 21.3422 7.91432 15.916 11.9151 11.9152C15.9159 7.91444 21.3421 5.66683 27 5.66683C32.658 5.66683 38.0842 7.91444 42.085 11.9152C46.0858 15.916 48.3334 21.3422 48.3334 27.0002C48.3334 32.6581 46.0858 38.0843 42.085 42.0851C38.0842 46.0859 32.658 48.3335 27 48.3335Z" fill="#FBBA23"/>
</svg>
