<svg width="60" height="56" viewBox="0 0 60 56" fill="none" xmlns="http://www.w3.org/2000/svg">
<path d="M59.3333 27.9998L52.8266 35.4131L53.7333 45.2264L44.1066 47.4131L39.0666 55.8931L30 51.9998L20.9333 55.9198L15.8933 47.4398L6.26663 45.2531L7.17329 35.4131L0.666626 27.9998L7.17329 20.5598L6.26663 10.7464L15.8933 8.58644L20.9333 0.106445L30 3.99978L39.0666 0.106445L44.1066 8.58644L53.7333 10.7731L52.8266 20.5864L59.3333 27.9998ZM52.2133 27.9998L47.3333 22.3731L47.9733 14.9331L40.6666 13.3331L36.88 6.85311L30 9.81311L23.12 6.85311L19.3333 13.3331L12.0266 14.9064L12.6666 22.3464L7.78663 27.9998L12.6666 33.5998L12.0266 41.0664L19.3333 42.6664L23.12 49.1464L30 46.1598L36.88 49.1198L40.6666 42.6664L47.9733 41.0398L47.3333 33.5998L52.2133 27.9998ZM20.4619 18.4293C19.4329 16.9961 20.4572 14.9998 22.2215 14.9998C22.9192 14.9998 23.5743 15.3358 23.9812 15.9026L29.9996 24.2855L32.6663 27.9998L39.5374 37.5702C40.5664 39.0034 39.5421 40.9998 37.7778 40.9998C37.08 40.9998 36.425 40.6637 36.0181 40.0969L27.333 27.9998L20.4619 18.4293Z" fill="#DB515F"/>
<path fill-rule="evenodd" clip-rule="evenodd" d="M27.333 27.9998L29.9996 24.2855L32.6663 27.9998L29.9996 31.714L27.333 27.9998ZM26.333 29.3926L20.4619 37.5702C19.4329 39.0034 20.4572 40.9998 22.2215 40.9998C22.9192 40.9998 23.5743 40.6637 23.9812 40.0969L28.9227 33.214L26.333 29.3926ZM33.7432 26.4998L30.9996 22.8926L36.0181 15.9026C36.425 15.3358 37.08 14.9998 37.7778 14.9998C39.5421 14.9998 40.5664 16.9961 39.5374 18.4293L33.7432 26.4998Z" fill="#DB515F"/>
</svg>
