<svg width="54" height="54" viewBox="0 0 54 54" fill="none" xmlns="http://www.w3.org/2000/svg">
<path d="M27 0.333496C12.3334 0.333496 0.333374 12.3335 0.333374 27.0002C0.333374 41.6668 12.3334 53.6668 27 53.6668C41.6667 53.6668 53.6667 41.6668 53.6667 27.0002C53.6667 12.3335 41.6667 0.333496 27 0.333496ZM27 48.3335C15.24 48.3335 5.66671 38.7602 5.66671 27.0002C5.66671 15.2402 15.24 5.66683 27 5.66683C38.76 5.66683 48.3334 15.2402 48.3334 27.0002C48.3334 38.7602 38.76 48.3335 27 48.3335ZM41.1267 17.1135C40.0858 16.0653 38.3913 16.0623 37.3467 17.1068L21.6667 32.7868L16.6419 27.7814C15.602 26.7455 13.9197 26.7471 12.8819 27.785C11.8426 28.8243 11.8426 30.5093 12.8819 31.5486L20.2525 38.9193C21.0335 39.7003 22.2999 39.7003 23.0809 38.9193L41.12 20.8802C42.1594 19.8408 42.1624 18.1566 41.1267 17.1135Z" fill="#67CC2F"/>
</svg>
