<svg width="128" height="128" viewBox="0 0 128 128" fill="none" xmlns="http://www.w3.org/2000/svg">
<g id="postgres">
<path id="Vector" d="M113.854 74.5557C113.232 72.6725 111.604 71.3605 109.497 71.0459C108.503 70.8976 107.366 70.9611 106.02 71.2384C103.673 71.7227 101.933 71.9067 100.662 71.9424C105.457 63.8464 109.357 54.6139 111.601 45.9226C115.231 31.8694 113.292 25.4674 111.025 22.5716C105.026 14.9068 96.2745 10.7892 85.7161 10.6632C80.0841 10.5944 75.1396 11.7064 72.5604 12.5062C70.1588 12.0825 67.5764 11.8457 64.867 11.802C59.7881 11.721 55.3006 12.8281 51.4662 15.1038C49.3434 14.3858 45.9364 13.3738 42.0019 12.728C32.748 11.2089 25.2899 12.3926 19.8346 16.2465C13.2288 20.9128 10.1664 29.0198 10.7328 40.3429C10.9127 43.938 12.9238 54.8763 16.0902 65.2496C17.9099 71.2117 19.8504 76.1632 21.8579 79.9675C24.7045 85.3616 27.7507 88.5381 31.1703 89.6789C33.0869 90.3173 36.5692 90.7643 40.2318 87.7141C40.6962 88.2763 41.3157 88.8347 42.1375 89.3541C43.1815 90.0123 44.4581 90.5504 45.733 90.8693C50.3274 92.0176 54.6313 91.7301 58.3022 90.1205C58.3252 90.7733 58.3428 91.3973 58.3572 91.936C58.3817 92.8101 58.4057 93.6667 58.4377 94.4683C58.6553 99.8859 59.0238 104.099 60.1161 107.047C60.1764 107.209 60.2569 107.455 60.3417 107.718C60.8868 109.386 61.7977 112.179 64.1161 114.366C66.5161 116.632 69.4196 117.327 72.0788 117.327C73.4126 117.327 74.6852 117.152 75.8009 116.913C79.7796 116.06 84.298 114.761 87.5662 110.107C90.6564 105.708 92.1588 99.0811 92.4302 88.64C92.4654 88.3451 92.498 88.0629 92.5294 87.7941L92.594 87.2421L93.322 87.3067L93.5097 87.3189C97.5614 87.504 102.516 86.6448 105.559 85.2309C107.964 84.1152 115.668 80.0475 113.854 74.5557Z" fill="black" fill-opacity="0.88"/>
<path id="Vector_2" d="M106.926 75.624C94.878 78.1093 94.0498 74.0299 94.0498 74.0299C106.77 55.1547 112.088 31.1945 107.499 25.3303C94.9793 9.33435 73.3079 16.8996 72.9463 17.0956L72.83 17.1167C70.4492 16.6224 67.7858 16.3283 64.7916 16.2793C59.3404 16.1901 55.205 17.7086 52.0668 20.0883C52.0668 20.0883 13.4064 4.16157 15.2049 40.1189C15.5871 47.7682 26.1688 97.9989 38.7899 82.8272C43.4029 77.2789 47.8604 72.5883 47.8604 72.5883C50.0741 74.0587 52.7243 74.8091 55.5026 74.5397L55.7186 74.3563C55.6514 75.0453 55.6823 75.7189 55.805 76.5168C52.5534 80.1493 53.509 80.7872 47.0093 82.1253C40.4323 83.4805 44.2959 85.8933 46.8185 86.5248C49.8767 87.2891 56.9516 88.3723 61.7324 81.68L61.542 82.4437C62.8156 83.4645 63.71 89.0805 63.5602 94.1728C63.4098 99.264 63.31 102.76 64.3138 105.491C65.318 108.221 66.318 114.365 74.8626 112.534C82.0023 111.004 85.702 107.039 86.2167 100.425C86.582 95.7232 87.4087 96.4187 87.4609 92.2144L88.1239 90.2245C88.8881 83.8507 88.2455 81.7947 92.6439 82.7509L93.7132 82.8448C96.95 82.992 101.188 82.3237 103.675 81.168C109.029 78.6832 112.205 74.5333 106.925 75.624H106.926Z" fill="#336791"/>
<path id="Vector_3" d="M54.3296 43.5393C53.2438 43.3883 52.2605 43.5279 51.763 43.9048C51.4836 44.1166 51.3968 44.3622 51.3733 44.5311C51.311 44.9788 51.6246 45.4738 51.8173 45.729C52.3625 46.4517 53.1591 46.9484 53.9477 47.0577C54.0619 47.074 54.1755 47.0813 54.2885 47.0813C55.6032 47.0813 56.7989 46.0575 56.904 45.302C57.0357 44.3557 55.6619 43.725 54.3296 43.5397" fill="white"/>
<path id="Vector_4" d="M90.2978 43.5699C90.1938 42.828 88.8743 42.6167 87.6215 42.7908C86.3703 42.9649 85.1575 43.5299 85.2589 44.2732C85.3399 44.8514 86.3837 45.8381 87.6194 45.8381C87.7239 45.8381 87.829 45.8313 87.9351 45.8163C88.7602 45.702 89.3655 45.1782 89.653 44.8764C90.0903 44.416 90.3442 43.9033 90.2978 43.5699Z" fill="white"/>
<path id="Vector_5" d="M110.935 75.3408C110.476 73.952 108.997 73.5051 106.54 74.0123C99.2466 75.5179 96.6343 74.4747 95.7767 73.8432C101.446 65.2064 106.111 54.7653 108.626 45.0244C109.818 40.4101 110.477 36.1248 110.531 32.632C110.59 28.7982 109.937 25.9812 108.591 24.2603C103.161 17.3226 95.1922 13.6012 85.5463 13.4992C78.9154 13.4245 73.3122 15.1216 72.2263 15.5988C69.9394 15.03 67.4455 14.6808 64.7308 14.6362C59.7527 14.5556 55.4498 15.7475 51.8872 18.177C50.3395 17.6009 46.3402 16.2279 41.4491 15.4401C32.9936 14.0788 26.2743 15.1102 21.4793 18.5072C15.7578 22.5606 13.1166 29.8066 13.6282 40.0433C13.8004 43.4871 15.7628 54.0816 18.8594 64.2277C22.9357 77.5824 27.3669 85.1419 32.0291 86.6971C32.5748 86.8795 33.2039 87.0064 33.8978 87.0064C35.5985 87.0064 37.6836 86.24 39.853 83.632C42.4992 80.4576 45.2363 77.3605 48.0611 74.344C49.8938 75.3275 51.9073 75.8768 53.9666 75.9323C53.9703 75.9861 53.9756 76.04 53.981 76.0933C53.6263 76.5163 53.2792 76.9445 52.9395 77.3797C51.5128 79.1909 51.2157 79.568 46.623 80.5136C45.3165 80.7835 41.8466 81.4981 41.7957 83.9307C41.7405 86.5883 45.8975 87.7045 46.3711 87.8229C48.0215 88.2357 49.6114 88.4395 51.1278 88.4395C54.8156 88.4395 58.061 87.2277 60.6546 84.8827C60.5746 94.3563 60.9698 103.692 62.1074 106.537C63.0391 108.865 65.3148 114.556 72.5042 114.555C73.5591 114.555 74.7202 114.433 75.9975 114.158C83.501 112.55 86.7591 109.234 88.0194 101.923C88.694 98.0155 89.8514 88.6853 90.3959 83.6805C91.5447 84.0389 93.0236 84.2027 94.6226 84.2027C97.9575 84.2027 101.806 83.4939 104.219 82.3739C106.93 81.1147 111.823 78.0256 110.935 75.3408ZM93.0674 41.5218C93.0423 42.9994 92.8391 44.3406 92.6236 45.7408C92.3911 47.2466 92.1516 48.8034 92.0914 50.6932C92.0316 52.5326 92.2615 54.4448 92.4834 56.2939C92.9324 60.0293 93.3927 63.8747 91.6098 67.6688C91.3138 67.144 91.0498 66.6016 90.8199 66.0448C90.5986 65.5077 90.117 64.6448 89.4508 63.4501C86.8583 58.8016 80.7874 47.9142 83.8956 43.4717C84.821 42.1493 87.1703 40.7898 93.0674 41.5218ZM85.9191 16.491C94.5618 16.6818 101.399 19.9149 106.239 26.1003C109.952 30.8446 105.864 52.4321 94.029 71.0555C93.91 70.9045 93.79 70.7536 93.67 70.6032L93.5202 70.416C96.5783 65.3653 95.9804 60.368 95.4482 55.9381C95.2295 54.1195 95.0226 52.4025 95.0754 50.7893C95.1298 49.0798 95.3554 47.6133 95.5746 46.1953C95.8428 44.448 96.1164 42.6401 96.0412 40.5088C96.0972 40.285 96.1202 40.0208 96.0908 39.7073C95.8983 37.6636 93.5644 31.5467 88.8087 26.0102C86.2071 22.982 82.413 19.5932 77.2327 17.3077C79.461 16.8459 82.5079 16.415 85.9191 16.491ZM37.5572 81.7227C35.1671 84.5968 33.5166 84.0459 32.9737 83.8651C29.4371 82.6853 25.3333 75.2101 21.7152 63.3563C18.5843 53.0996 16.7548 42.7857 16.6098 39.8938C16.1529 30.7469 18.37 24.3724 23.2003 20.9468C31.0612 15.3723 43.9852 18.7089 49.1785 20.4011C49.1039 20.4749 49.0262 20.5438 48.9524 20.6186C40.4304 29.225 40.6325 43.929 40.6537 44.8281C40.6528 45.1748 40.6819 45.6659 40.7217 46.3412C40.8682 48.8144 41.1413 53.4171 40.4122 58.6299C39.7347 63.4741 41.228 68.2149 44.5082 71.6379C44.8449 71.9883 45.1986 72.3221 45.5685 72.6379C44.1084 74.2016 40.9352 77.6597 37.5572 81.7227ZM46.6639 69.5723C44.0201 66.8133 42.8194 62.976 43.3691 59.0432C44.1387 53.5371 43.8549 48.741 43.702 46.1645C43.6806 45.8038 43.6616 45.488 43.6506 45.2387C44.8955 44.1348 50.6649 41.0439 54.7788 41.9866C56.6567 42.4163 57.8007 43.6948 58.2759 45.8939C60.7378 57.2789 58.6018 62.024 56.886 65.8373C56.5324 66.6229 56.198 67.3653 55.9127 68.1333L55.6914 68.7275C55.1314 70.2288 54.6108 71.6251 54.2876 72.9504C51.4771 72.9424 48.743 71.7413 46.6639 69.5717V69.5723ZM47.0953 84.9259C46.2746 84.7211 45.5364 84.3648 45.1035 84.0699C45.4652 83.8997 46.1088 83.6677 47.2253 83.4379C52.6285 82.3259 53.4631 81.5403 55.285 79.2267C55.7031 78.696 56.1767 78.0949 56.8322 77.3627L56.8332 77.3616C57.8098 76.2677 58.2567 76.4533 59.0668 76.7899C59.7239 77.0613 60.3634 77.8843 60.6226 78.7899C60.7452 79.2181 60.8828 80.0299 60.4322 80.6619C56.6258 85.9915 51.0788 85.9232 47.0953 84.9259ZM75.3719 111.239C68.7623 112.655 66.4215 109.283 64.8796 105.428C63.8844 102.938 63.3948 91.7141 63.742 79.3189C63.7463 79.1541 63.7228 78.9947 63.6775 78.8448C63.637 78.5488 63.5751 78.256 63.493 77.9691C62.9767 76.1653 61.7191 74.6571 60.2098 74.0309C59.6103 73.7829 58.51 73.3275 57.1874 73.6656C57.4695 72.5035 57.9586 71.1915 58.4887 69.7707L58.7111 69.1728C58.9618 68.4997 59.2759 67.8011 59.6082 67.0624C61.4039 63.0725 63.8636 57.608 61.1943 45.2632C60.1943 40.6392 56.8556 38.3811 51.7939 38.9056C48.7595 39.2195 45.9832 40.4439 44.5986 41.1459C44.3009 41.2965 44.0286 41.4424 43.7743 41.5842C44.1606 36.9254 45.6207 28.2186 51.0824 22.7098C54.5218 19.242 59.1015 17.5293 64.6812 17.6217C75.6764 17.8013 82.7271 23.4438 86.7063 28.1461C90.1351 32.1978 91.9916 36.2793 92.7324 38.4808C87.1602 37.9139 83.3703 39.0138 81.4492 41.7605C77.2695 47.7352 83.7356 59.3312 86.8434 64.9045C87.4135 65.9259 87.9052 66.8085 88.0599 67.1835C89.0722 69.6363 90.382 71.2736 91.3383 72.4688C91.6316 72.8352 91.9164 73.1904 92.1324 73.5003C90.445 73.9872 87.4135 75.1115 87.6898 80.7307C87.4668 83.5504 85.8823 96.7515 85.0775 101.415C84.0146 107.578 81.7474 109.873 75.3719 111.239ZM102.962 79.6661C101.236 80.4672 98.3484 81.0677 95.605 81.1968C92.5746 81.3387 91.0316 80.8576 90.669 80.5616C90.4988 77.0597 91.8023 76.6939 93.1815 76.3067C93.398 76.2459 93.6098 76.1861 93.814 76.1147C93.9404 76.2181 94.0796 76.3205 94.2322 76.4213C96.6674 78.0288 101.011 78.2016 107.145 76.936L107.212 76.9227C106.385 77.696 104.969 78.7339 102.962 79.6661Z" fill="white"/>
</g>
</svg>
