<svg width="28" height="28" viewBox="0 0 28 28" fill="none" xmlns="http://www.w3.org/2000/svg">
<g id="mdi:account-multiple-plus">
<path id="Vector" d="M22.1667 19.8333V22.1667H8.16667V19.8333C8.16667 19.8333 8.16667 15.1667 15.1667 15.1667C22.1667 15.1667 22.1667 19.8333 22.1667 19.8333ZM18.6667 9.33334C18.6667 8.64111 18.4614 7.96442 18.0768 7.38885C17.6922 6.81328 17.1456 6.36467 16.5061 6.09977C15.8665 5.83486 15.1628 5.76555 14.4839 5.9006C13.8049 6.03564 13.1813 6.36899 12.6918 6.85847C12.2023 7.34795 11.869 7.9716 11.7339 8.65053C11.5989 9.32946 11.6682 10.0332 11.9331 10.6727C12.198 11.3123 12.6466 11.8589 13.2222 12.2435C13.7977 12.6281 14.4744 12.8333 15.1667 12.8333C16.0949 12.8333 16.9852 12.4646 17.6415 11.8082C18.2979 11.1518 18.6667 10.2616 18.6667 9.33334ZM22.4 15.2367C23.0377 15.825 23.5519 16.5345 23.9124 17.3237C24.273 18.113 24.4727 18.9661 24.5 19.8333V22.1667H28V19.8333C28 19.8333 28 15.8083 22.4 15.2367ZM21 5.83334C20.6475 5.83356 20.2972 5.88866 19.9617 5.99668C20.6442 6.97548 21.0102 8.14006 21.0102 9.33334C21.0102 10.5266 20.6442 11.6912 19.9617 12.67C20.2972 12.778 20.6475 12.8331 21 12.8333C21.9283 12.8333 22.8185 12.4646 23.4749 11.8082C24.1313 11.1518 24.5 10.2616 24.5 9.33334C24.5 8.40509 24.1313 7.51485 23.4749 6.85847C22.8185 6.20209 21.9283 5.83334 21 5.83334ZM9.33333 11.6667H5.83333V8.16668H3.5V11.6667H0V14H3.5V17.5H5.83333V14H9.33333V11.6667Z" fill="black" fill-opacity="0.88"/>
</g>
</svg>
