<svg width="28" height="28" viewBox="0 0 28 28" fill="none" xmlns="http://www.w3.org/2000/svg">
<g id="mdi:account-plus">
<path id="Vector" d="M17.4998 16.3333C14.3848 16.3333 8.1665 17.885 8.1665 21V23.3333H26.8332V21C26.8332 17.885 20.6148 16.3333 17.4998 16.3333ZM6.99984 11.6667V8.16666H4.6665V11.6667H1.1665V14H4.6665V17.5H6.99984V14H10.4998V11.6667M17.4998 14C18.7375 14 19.9245 13.5083 20.7997 12.6332C21.6748 11.758 22.1665 10.571 22.1665 9.33332C22.1665 8.09565 21.6748 6.90866 20.7997 6.03349C19.9245 5.15832 18.7375 4.66666 17.4998 4.66666C16.2622 4.66666 15.0752 5.15832 14.2 6.03349C13.3248 6.90866 12.8332 8.09565 12.8332 9.33332C12.8332 10.571 13.3248 11.758 14.2 12.6332C15.0752 13.5083 16.2622 14 17.4998 14Z" fill="black" fill-opacity="0.88"/>
</g>
</svg>
