<svg width="28" height="28" viewBox="0 0 28 28" fill="none" xmlns="http://www.w3.org/2000/svg">
<g id="mdi:book-plus">
<path id="Vector" d="M15.1665 22.1667C15.1665 23.45 15.5165 24.64 16.1115 25.6667H6.99984C5.70484 25.6667 4.6665 24.6283 4.6665 23.3333V4.66668C4.6665 4.04784 4.91234 3.45435 5.34992 3.01676C5.78751 2.57918 6.381 2.33334 6.99984 2.33334H8.1665V10.5L11.0832 8.75001L13.9998 10.5V2.33334H20.9998C21.6187 2.33334 22.2122 2.57918 22.6498 3.01676C23.0873 3.45435 23.3332 4.04784 23.3332 4.66668V15.2717C22.9482 15.2133 22.5632 15.1667 22.1665 15.1667C18.3048 15.1667 15.1665 18.305 15.1665 22.1667ZM23.3332 21V17.5H20.9998V21H17.4998V23.3333H20.9998V26.8333H23.3332V23.3333H26.8332V21H23.3332Z" fill="black" fill-opacity="0.88"/>
</g>
</svg>
