<svg width="32" height="32" viewBox="0 0 32 32" fill="none" xmlns="http://www.w3.org/2000/svg">
<g id="mdi:delete">
<path id="Vector" d="M25.3337 7.33333C25.3337 6.22876 24.438 5.33333 23.3335 5.33333C22.6458 5.33333 21.986 5.33333 21.4948 5.33333C20.9643 5.33333 20.4563 5.12262 20.0812 4.74755L19.3337 4H12.667L11.9194 4.74755C11.5444 5.12262 11.0357 5.33333 10.5052 5.33333H8.66699C7.56242 5.33333 6.66699 6.22876 6.66699 7.33333V8H25.3337M8.00033 25.3333C8.00033 26.0406 8.28128 26.7189 8.78137 27.219C9.28147 27.719 9.95975 28 10.667 28H21.3337C22.0409 28 22.7192 27.719 23.2193 27.219C23.7194 26.7189 24.0003 26.0406 24.0003 25.3333V9.33333H8.00033V25.3333Z" fill="black" fill-opacity="0.88"/>
</g>
</svg>
